<svg width="816" height="148" viewBox="0 0 816 148" fill="none" xmlns="http://www.w3.org/2000/svg">
<path d="M574.4 147.531C565.6 147.531 558.067 145.808 551.8 142.362C545.667 138.793 541 133.871 537.8 127.595C534.6 121.319 533 113.997 533 105.629V44.5306H563V103.414C563 107.229 563.8 110.613 565.4 113.567C567.133 116.397 569.533 118.612 572.6 120.212C575.667 121.811 579.133 122.611 583 122.611C587 122.611 590.467 121.811 593.4 120.212C596.467 118.612 598.8 116.397 600.4 113.567C602.133 110.613 603 107.229 603 103.414V44.5306H633V145.316H605V125.38L606.6 129.81C604.067 135.84 599.933 140.332 594.2 143.285C588.6 146.116 582 147.531 574.4 147.531Z" fill="white"/>
<path d="M647 145.531V44.7457H675V64.6812L673.4 60.2511C675.933 54.2212 680 49.7911 685.6 46.9607C691.333 44.0073 698 42.5306 705.6 42.5306C713.867 42.5306 721.067 44.1304 727.2 47.3299C733.467 50.5295 738.333 55.0211 741.8 60.8049C745.267 66.4655 747 73.1107 747 80.7404V145.531H717V86.6472C717 82.7093 716.133 79.3252 714.4 76.4948C712.8 73.6645 710.467 71.4494 707.4 69.8497C704.467 68.2499 701 67.45 697 67.45C693.133 67.45 689.667 68.2499 686.6 69.8497C683.533 71.4494 681.133 73.6645 679.4 76.4948C677.8 79.3252 677 82.7093 677 86.6472V145.531H647Z" fill="white"/>
<path d="M290 144.731V43.9306H314.6L316.6 60.3306C319.667 54.7306 324 50.1973 329.6 46.7306C335.333 43.264 342.2 41.5306 350.2 41.5306C358.467 41.5306 365.467 43.3306 371.2 46.9306C376.933 50.3973 381.267 55.464 384.2 62.1306C387.267 68.7973 388.8 76.9973 388.8 86.7306V144.731H361V89.3306C361 81.5973 359.333 75.664 356 71.5306C352.8 67.264 347.667 65.1306 340.6 65.1306C336.333 65.1306 332.467 66.1973 329 68.3306C325.533 70.3306 322.8 73.264 320.8 77.1306C318.933 80.864 318 85.464 318 90.9306V144.731H290Z" fill="white"/>
<path d="M215.248 147.161C207.115 147.161 200.115 145.494 194.248 142.161C188.515 138.694 184.115 133.627 181.048 126.961C177.982 120.294 176.448 112.094 176.448 102.361V43.9606H204.448V99.5605C204.448 107.427 206.048 113.427 209.248 117.561C212.582 121.561 217.715 123.561 224.648 123.561C229.048 123.561 232.982 122.561 236.448 120.561C239.915 118.561 242.582 115.694 244.448 111.961C246.448 108.094 247.448 103.361 247.448 97.7605V43.9606H275.448V144.761H250.848L248.648 128.561C245.715 134.161 241.382 138.694 235.648 142.161C230.048 145.494 223.248 147.161 215.248 147.161Z" fill="white"/>
<path d="M121.837 146.4C116.637 146.4 112.037 145.733 108.037 144.4C104.037 143.2 100.503 141.467 97.4367 139.2C94.37 136.933 91.77 134.333 89.6367 131.4L86.4367 144H61.6367V0H89.6367V57C92.7034 52.3333 96.8367 48.4667 102.037 45.4C107.37 42.3333 113.903 40.8 121.637 40.8C130.837 40.8 139.037 43.1333 146.237 47.8C153.57 52.3333 159.303 58.6 163.437 66.6C167.704 74.4667 169.837 83.5333 169.837 93.8C169.837 103.8 167.704 112.8 163.437 120.8C159.303 128.8 153.637 135.067 146.437 139.6C139.237 144.133 131.037 146.4 121.837 146.4ZM115.037 122C120.103 122 124.637 120.8 128.637 118.4C132.637 116 135.77 112.667 138.037 108.4C140.303 104.133 141.437 99.2667 141.437 93.8C141.437 88.2 140.303 83.2667 138.037 79C135.77 74.7333 132.637 71.4 128.637 69C124.637 66.4667 120.103 65.2 115.037 65.2C109.837 65.2 105.237 66.4667 101.237 69C97.37 71.4 94.3034 74.7333 92.0367 79C89.77 83.1333 88.6367 88 88.6367 93.6C88.6367 99.2 89.77 104.133 92.0367 108.4C94.3034 112.667 97.37 116 101.237 118.4C105.237 120.8 109.837 122 115.037 122Z" fill="white"/>
<path d="M478.2 147.931C473 147.931 468.4 147.264 464.4 145.931C460.4 144.731 456.867 142.998 453.8 140.731C450.733 138.464 448.133 135.864 446 132.931L442.8 145.531H418V1.53064H446V58.5306C449.067 53.8639 453.2 49.9973 458.4 46.9306C463.733 43.8639 470.267 42.3306 478 42.3306C487.2 42.3306 495.4 44.6639 502.6 49.3306C509.933 53.8639 515.667 60.1306 519.8 68.1306C524.067 75.9973 526.2 85.0639 526.2 95.3307C526.2 105.331 524.067 114.331 519.8 122.331C515.667 130.331 510 136.598 502.8 141.131C495.6 145.664 487.4 147.931 478.2 147.931ZM471.4 123.531C476.467 123.531 481 122.331 485 119.931C489 117.531 492.133 114.198 494.4 109.931C496.667 105.664 497.8 100.797 497.8 95.3307C497.8 89.7307 496.667 84.7973 494.4 80.5306C492.133 76.2639 489 72.9306 485 70.5306C481 67.9973 476.467 66.7306 471.4 66.7306C466.2 66.7306 461.6 67.9973 457.6 70.5306C453.733 72.9306 450.667 76.2639 448.4 80.5306C446.133 84.6639 445 89.5306 445 95.1306C445 100.731 446.133 105.664 448.4 109.931C450.667 114.198 453.733 117.531 457.6 119.931C461.6 122.331 466.2 123.531 471.4 123.531Z" fill="white"/>
<path d="M804.071 44.5541C799.409 44.0928 798.942 50.5428 787.75 55.1491C776.354 59.84 765.053 66.0044 764.875 89.3984C764.854 91.9329 764.696 96.3113 764.669 98.1657C764.631 100.819 764.708 103.674 763.483 105.138C762.486 106.332 760.731 107.674 759 108.848L763.747 113.531C767.98 110.255 769.181 109.96 770.069 109.98C772.191 110.026 774.343 110.046 776.502 109.877C790.186 108.799 804.076 102.233 811.066 89.7006C823.655 67.128 808.733 45.0155 804.071 44.5541ZM802.889 59.3282C802.045 62.1336 799.211 66.3125 790.349 76.6381C785.777 81.9661 780.506 91.1486 776.743 99.3251C775.602 101.803 771.773 99.9888 773.141 97.5094C774.92 94.8946 779.018 83.478 784.948 75.8165C790.881 68.1534 798.782 61.5738 800.005 57.7847C800.576 55.1922 804.012 55.597 802.889 59.3282Z" fill="white"/>
<path d="M11.3065 80.3556C15.7256 79.913 16.1681 86.1011 26.7755 90.5203C37.577 95.0207 48.2884 100.935 48.4569 123.379C48.4769 125.81 48.6268 130.011 48.6525 131.79C48.6882 134.336 48.6154 137.074 49.7761 138.479C50.7213 139.624 52.3847 140.912 54.0254 142.039L49.5263 146.531C45.5141 143.388 44.3761 143.105 43.5336 143.124C41.5232 143.168 39.4829 143.188 37.4368 143.025C24.4665 141.992 11.3021 135.692 4.67692 123.668C-7.25519 102.013 6.88742 80.7983 11.3065 80.3556ZM12.4272 94.5296C13.2267 97.2211 15.9125 101.23 24.3124 111.137C28.6459 116.248 33.6418 125.058 37.2084 132.902C38.2894 135.28 41.9187 133.539 40.6223 131.16C38.9361 128.652 35.0524 117.699 29.4311 110.348C23.8083 102.996 16.3194 96.684 15.16 93.0489C14.6191 90.5617 11.3621 90.9501 12.4272 94.5296Z" fill="white"/>
</svg>
